<svg width="70" height="52" viewBox="0 0 70 52" fill="none" xmlns="http://www.w3.org/2000/svg">
<path d="M66.0816 0C62.096 0.360946 58.9822 1.37784 55.7397 3.91696C54.967 3.53276 53.9111 0.838852 53.4214 1.14045C51.7087 2.19552 51.2636 4.53386 52.709 6.83524L44.148 8.55598C40.5581 9.13575 36.966 9.39553 33.3987 9.4816C33.5908 10.1466 33.8276 10.8067 34.0959 11.2256C34.8521 12.406 37.0406 12.3032 37.1489 13.7852C37.4292 17.6199 33.5444 22.0132 30.3306 21.9511C28.0991 21.908 27.865 16.96 25.7514 16.1008C22.9843 14.976 19.7208 19.358 17.1012 17.807C14.8891 16.4973 13.48 10.9004 13.0679 9.05922C11.5881 9.03718 10.1226 9.03458 8.67528 9.0653C6.85481 9.12881 5.35688 10.0449 4.41419 11.5362C3.15708 13.5245 2.72587 16.1622 2.49375 18.9851C2.23583 22.1185 3.38442 28.1835 3.29314 31.1812C3.22011 33.5846 2.20743 33.241 1.56714 34.4589C-0.391849 38.1846 2.85584 38.0736 4.03239 35.4237C5.84098 31.3504 4.64863 24.4721 5.07492 19.2898C5.3437 13.0843 6.61037 15.136 7.34456 15.023C6.736 17.2902 6.44476 20.3959 6.33029 23.9311C7.32935 23.5247 11.6187 21.9181 12.5217 23.9009C13.5174 26.087 8.49329 27.7213 9.06186 30.1166C9.41889 31.6204 12.3872 30.5293 12.6237 32.0668C13.105 35.1964 7.96819 38.7847 6.50388 39.7384C6.62153 43.7867 6.73049 47.6457 6.68326 51.0329H11.0143C10.4008 48.1622 9.27008 42.366 10.4261 41.4741C13.5304 38.3347 14.7492 34.9694 16.6177 31.682C17.8863 32.1256 19.0694 32.5127 20.2085 32.8398C20.7233 33.0085 21.2582 33.1472 21.8001 33.2633C25.402 34.1252 30.7188 34.2486 34.9541 33.2334C35.4989 39.1543 36.0065 45.112 35.6209 51.0329H39.8167C38.0236 46.3646 39.199 39.7457 41.8296 36.0623L48.3403 30.2556C51.9454 27.4125 54.5607 23.6621 56.4518 19.2572C60.857 19.8494 64.7233 19.8281 67.6366 19.1208L69.4971 15.7282C65.9823 12.6295 63.2231 9.37956 60.3762 5.64082C61.8343 3.11889 64.0026 1.69037 66.0816 0ZM60.3763 9.46997C60.6838 9.46997 60.9786 9.61623 61.196 9.87658C61.4134 10.1369 61.5355 10.49 61.5355 10.8582C61.5355 11.2264 61.4134 11.5795 61.196 11.8399C60.9786 12.1002 60.6838 12.2465 60.3763 12.2465C60.0689 12.2465 59.7741 12.1002 59.5567 11.8399C59.3393 11.5795 59.2172 11.2264 59.2172 10.8582C59.2172 10.49 59.3393 10.1369 59.5567 9.87658C59.7741 9.61623 60.0689 9.46997 60.3763 9.46997ZM51.1924 12.9321C51.9211 14.6365 47.4005 14.8076 47.5797 16.7102C47.7243 18.2455 50.797 17.3764 50.9891 18.9042C51.5423 23.3072 46.8683 28.2411 43.1532 28.4103C41.0867 28.5047 38.096 25.9704 38.4719 23.5352C38.8494 21.0898 43.4782 23.2477 44.3232 20.976C45.0077 19.136 41.6641 17.1566 42.4407 15.3697C43.3484 13.2818 46.8403 11.456 48.5168 11.4399C50.1932 11.4238 50.778 12.0205 51.1924 12.9321ZM47.3404 34.8571L42.3115 39.015L43.2481 51.0329H48.2345C46.5272 47.1364 45.9771 41.4009 47.3404 34.8571ZM17.7004 35.1018C16.8242 37.2161 15.6506 38.9143 14.4875 40.5233C15.3525 41.0847 16.1752 41.4628 16.973 41.671C18.5985 42.095 20.108 41.7288 21.3123 40.9061C22.7694 39.9106 23.8511 38.3982 24.8065 36.851C22.6889 36.7002 20.0307 36.337 17.7004 35.1018ZM21.2144 44.1255C19.9484 44.5741 18.6857 44.7675 17.51 44.6391C18.2587 46.8298 19.0242 48.8303 19.8028 51.0329H23.9042C22.3983 47.826 21.5645 45.951 21.2144 44.1255Z" fill="#292827"/>
</svg>
