<svg width="40" height="40" viewBox="0 0 40 40" fill="none" xmlns="http://www.w3.org/2000/svg">
<path d="M3.89995 1.73404C4.26795 2.76804 3.71595 4.17804 2.61195 5.30604C-1.62005 9.63004 1.78395 24.2 8.59195 31.156C15.3999 38.112 29.6599 41.59 33.8919 37.266C34.9959 36.138 36.3759 35.574 37.3879 35.95C38.676 36.326 39.044 35.95 39.044 33.6C39.044 31.25 38.676 30.874 37.2959 31.344C36.1919 31.72 35.0879 31.25 34.3519 30.216C33.6159 29.182 31.1319 28.336 27.3599 27.772C16.9639 26.362 13.2839 22.602 11.9039 11.98C11.3519 8.12604 10.5239 5.58804 9.51195 4.83604C8.49995 4.08404 8.03995 2.95604 8.40795 1.82804C8.86795 0.418042 8.49995 0.0420419 6.19995 0.0420419C3.89995 0.0420419 3.53195 0.418042 3.89995 1.73404Z" fill="#292827"/>
</svg>
