<svg width="58" height="45" viewBox="0 0 58 45" fill="none" xmlns="http://www.w3.org/2000/svg">
<path d="M29.2192 5.86953C22.0828 10.8685 20.3894 11.5135 15.4302 10.546C11.3177 9.73969 8.6567 10.2235 5.99567 11.9973C1.64126 14.8999 0.915527 17.3188 0.915527 27.4779C0.915527 41.346 5.75376 44.4099 27.5258 44.4099C50.2655 44.4099 57.7647 38.6047 57.7647 21.1889C57.7647 13.4486 57.2809 11.0297 54.7408 7.4821C48.3302 -1.70954 40.589 -2.19331 29.2192 5.86953ZM48.6931 5.54701C56.1923 9.73969 57.2809 20.3826 50.6283 24.8978C37.6861 33.9282 3.33464 31.1869 3.33464 21.1889C3.33464 15.3837 8.29383 12.6423 16.2769 13.7711C22.5666 14.7387 23.7762 14.4161 28.1306 10.546C36.5975 2.80565 41.4357 1.51559 48.6931 5.54701Z" fill="#FFF6F6"/>
<path d="M38.411 9.73933C38.411 11.8357 37.4434 14.4158 36.3548 15.5446C33.5728 18.1247 35.0243 20.221 41.314 22.4786C44.9426 23.7687 46.757 23.6074 49.418 21.6723C55.9496 17.1571 52.4419 8.61053 43.3702 6.99797C38.7739 6.19168 38.411 6.35294 38.411 9.73933Z" fill="#FFF6F6"/>
<path d="M33.2111 9.25569C31.7597 11.0295 32.2435 12.9646 34.1788 12.9646C35.1464 12.9646 35.9931 11.8358 35.9931 10.5457C35.9931 7.96564 34.5416 7.32061 33.2111 9.25569Z" fill="#FFF6F6"/>
<path d="M26.4368 15.2222L23.6548 17.3185L27.5254 18.4473C32.2426 19.5761 32.8474 19.2536 30.7912 15.7059C29.5816 13.4483 28.9768 13.4483 26.4368 15.2222Z" fill="#FFF6F6"/>
<path d="M7.56816 18.4475C4.1814 21.8339 6.60052 24.5752 13.8579 25.3815C18.2123 26.0265 20.1476 25.5428 21.3571 23.7689C22.5667 21.6726 22.4457 21.0276 20.6314 19.7375C16.156 16.5124 10.1082 15.8674 7.56816 18.4475Z" fill="#FFF6F6"/>
<path d="M23.8971 25.0587C22.5666 27.155 22.9294 27.4775 25.4695 27.4775C27.7677 27.4775 28.4934 26.8325 28.0096 25.0587C27.5258 23.7686 26.8 22.6398 26.3162 22.6398C25.8324 22.6398 24.7438 23.7686 23.8971 25.0587Z" fill="#FFF6F6"/>
<path d="M30.6705 25.0592C31.5172 27.6393 33.9363 27.9619 37.8069 26.0268C39.7422 24.898 39.5003 24.5755 36.1135 23.7692C30.4286 22.1566 29.9448 22.3179 30.6705 25.0592Z" fill="#FFF6F6"/>
</svg>
