<?xml version="1.0" encoding="UTF-8" standalone="no" ?>
<!DOCTYPE svg PUBLIC "-//W3C//DTD SVG 1.1//EN" "http://www.w3.org/Graphics/SVG/1.1/DTD/svg11.dtd">
<svg xmlns="http://www.w3.org/2000/svg" xmlns:xlink="http://www.w3.org/1999/xlink" version="1.1" width="640" height="480" viewBox="0 0 640 480" xml:space="preserve">
<desc>Created with Fabric.js 3.6.6</desc>
<defs>
</defs>
<g transform="matrix(10.37 0 0 10.37 319.32 240.68)"  >
<path style="stroke: none; stroke-width: 1; stroke-dasharray: none; stroke-linecap: butt; stroke-dashoffset: 0; stroke-linejoin: miter; stroke-miterlimit: 4; fill: rgb(41,40,39); fill-rule: nonzero; opacity: 1;"  transform=" translate(-25, -20.5)" d="M 4.89676 24.6339 C 5.16652 23.833 5.48739 23.135 5.85938 22.54 C 6.23136 21.9451 6.59877 21.3577 6.9615 20.778 C 7.32422 20.1984 7.6404 19.5462 7.91016 18.8216 C 8.17991 18.0969 8.33337 17.3379 8.37054 16.5446 C 8.42634 15.2327 7.91484 14.3784 6.83594 13.9817 C 5.65368 13.3948 4.35647 13.04 3.05737 12.6847 C 2.02031 12.4009 0.982031 12.117 0 11.7143 C 0.671987 11.2268 1.33147 10.7094 1.99353 10.1901 C 3.09397 9.32704 4.20145 8.45836 5.38504 7.71166 C 4.23181 7.08623 3.65513 6.19375 3.65513 5.03431 C 3.65513 4.19527 4.05502 3.45919 4.85491 2.82607 C 5.6548 2.19295 6.51975 1.87639 7.44978 1.87639 C 8.24967 1.87639 8.98437 2.1396 9.65402 2.66592 C 10.3237 3.19223 10.8538 3.77575 11.2444 4.41647 C 11.1142 3.69943 11.1049 3.03208 11.2165 2.41415 C 11.3281 1.79631 11.6676 1.23952 12.2349 0.743674 C 12.8022 0.247922 13.5974 0 14.6205 0 C 15.6622 0 16.555 0.308964 17.2991 0.926801 C 18.0432 1.54464 18.4152 2.29591 18.4152 3.18079 C 18.4152 3.89775 18.1454 4.55375 17.606 5.1487 C 17.7548 5.16399 17.8943 5.18687 18.0246 5.21743 C 18.1548 5.24791 18.2664 5.27463 18.3594 5.29751 C 18.4523 5.32039 18.5547 5.36231 18.6663 5.42335 C 18.7779 5.48439 18.8663 5.52631 18.9314 5.54919 C 18.9964 5.57207 19.0801 5.63311 19.1825 5.73222 C 19.2848 5.83143 19.3546 5.89247 19.3917 5.91535 C 19.4289 5.93823 19.508 6.01831 19.6289 6.15558 C 19.7498 6.29295 19.8242 6.38063 19.8521 6.41879 C 19.88 6.45695 19.9637 6.56366 20.1032 6.7391 C 20.2427 6.91454 20.3311 7.02519 20.3683 7.07094 C 20.9263 7.74223 21.4518 8.74902 21.9448 10.0915 C 22.4377 11.4341 22.8562 12.7345 23.2003 13.9932 C 23.5444 15.2517 23.7816 16.0031 23.9118 16.2472 C 24.9721 16.9947 26.1208 17.624 27.3577 18.135 C 28.5946 18.6461 29.734 18.9092 30.7757 18.9245 C 31.9475 18.9397 33.2078 18.6613 34.5564 18.0892 C 35.9049 17.5172 37.1699 16.7964 38.351 15.9268 C 39.5321 15.0573 40.6761 14.0884 41.7829 13.0206 C 42.8897 11.9527 43.8384 10.9382 44.6289 9.9771 C 45.4194 9.01607 46.0472 8.14646 46.5123 7.36847 C 46.7913 8.00919 47.0145 8.58502 47.1819 9.09614 C 47.3493 9.60718 47.4796 10.2785 47.5725 11.1098 C 47.6655 11.9413 47.633 12.6926 47.4749 13.3639 C 47.3167 14.0351 46.9587 14.7483 46.4007 15.5034 C 45.8426 16.2586 45.0706 16.9184 44.0848 17.4828 C 44.122 17.5133 44.3731 17.54 44.8382 17.5629 C 45.3032 17.5858 45.7915 17.6316 46.303 17.7002 C 46.8145 17.7689 47.3586 18.0016 47.9353 18.3982 C 48.5119 18.7948 48.9397 19.3364 49.2188 20.0229 C 48.2329 20.0229 47.3586 20.2707 46.596 20.7666 C 45.8334 21.2624 45.3497 21.7696 45.1451 22.2884 C 45.7961 22.1663 46.6797 22.3608 47.7958 22.8719 C 48.9118 23.3829 49.6465 24.0656 50 24.9199 C 49.1629 24.9809 48.5026 25.2174 48.019 25.6293 C 47.5354 26.0412 47.0517 26.7735 46.5681 27.8261 C 45.9356 29.2296 44.9358 30.3814 43.5686 31.2814 C 42.2015 32.1815 40.6901 32.7765 39.0346 33.0664 C 37.3791 33.3563 35.6213 33.4554 33.7612 33.3638 C 31.901 33.2723 30.1479 32.9977 28.5017 32.5401 C 26.8555 32.0824 25.372 31.4912 24.0513 30.7666 C 22.7307 30.0419 21.7634 29.2525 21.1496 28.3982 C 22.4517 30.8696 24.3396 32.7956 26.8136 34.1762 C 29.2876 35.5568 31.8917 36.2548 34.6261 36.27 C 36.635 36.2853 38.6532 35.7666 40.6808 34.714 C 40.1041 35.7971 39.1881 36.762 37.9325 37.6087 C 36.6769 38.4554 35.3097 39.1076 33.8309 39.5653 C 32.3521 40.0229 30.9431 40.3662 29.6038 40.5949 C 28.2645 40.8238 27.0461 40.9535 25.9487 40.984 C 19.0477 41.1518 13.6998 40 9.90513 37.5286 C 6.11049 35.0572 4.28761 31.6171 4.43638 27.2083 C 4.47355 26.2929 4.62701 25.4348 4.89676 24.6339 Z M 11.6071 11.7143 C 13.0865 11.7143 14.2857 10.7309 14.2857 9.51786 C 14.2857 8.30479 13.0865 7.32143 11.6071 7.32143 C 10.1278 7.32143 8.92857 8.30479 8.92857 9.51786 C 8.92857 10.7309 10.1278 11.7143 11.6071 11.7143 Z" stroke-linecap="round" />
</g>
</svg>