<?xml version="1.0" encoding="UTF-8" standalone="no" ?>
<!DOCTYPE svg PUBLIC "-//W3C//DTD SVG 1.1//EN" "http://www.w3.org/Graphics/SVG/1.1/DTD/svg11.dtd">
<svg xmlns="http://www.w3.org/2000/svg" xmlns:xlink="http://www.w3.org/1999/xlink" version="1.1" width="640" height="480" viewBox="0 0 640 480" xml:space="preserve">
<desc>Created with Fabric.js 3.6.6</desc>
<defs>
</defs>
<g transform="matrix(12.88 0 0 12.88 322.08 240.47)"  >
<g style=""   >
		<g transform="matrix(1 0 0 1 0.16 0.16)"  >
<path style="stroke: none; stroke-width: 1; stroke-dasharray: none; stroke-linecap: butt; stroke-dashoffset: 0; stroke-linejoin: miter; stroke-miterlimit: 4; fill: rgb(255,255,255); fill-rule: evenodd; opacity: 1;"  transform=" translate(-20.66, -18.66)" d="M 1.76465 35.6879 L 4.43472 26.9447 C 2.78748 24.3863 1.92124 21.4828 1.92224 18.5092 C 1.92719 9.206 10.3675 1.63721 20.7406 1.63721 C 25.7745 1.63898 30.4981 3.3965 34.0513 6.58528 C 37.6034 9.77495 39.5599 14.0136 39.5579 18.5225 C 39.554 27.8257 31.1116 35.3954 20.7406 35.3954 H 20.7326 C 17.5839 35.3945 14.4886 34.686 11.7402 33.341 L 1.76465 35.6879 Z" stroke-linecap="round" />
</g>
		<g transform="matrix(1 0 0 1 0.16 0.16)"  >
<path style="stroke: none; stroke-width: 1; stroke-dasharray: none; stroke-linecap: butt; stroke-dashoffset: 0; stroke-linejoin: miter; stroke-miterlimit: 4; fill: rgb(255,255,255); fill-rule: evenodd; opacity: 1;"  transform=" translate(-20.66, -18.66)" d="M 1.76514 36.1321 C 1.63432 36.1321 1.50745 36.0858 1.4133 36.0005 C 1.28941 35.8876 1.24084 35.7231 1.28743 35.5711 L 3.90298 27.0049 C 2.28152 24.4215 1.42618 21.4878 1.42816 18.5098 C 1.43213 8.96031 10.0955 1.19238 20.7411 1.19238 C 25.9048 1.19416 30.7563 2.99791 34.4026 6.27114 C 38.0489 9.54526 40.056 13.8959 40.054 18.5222 C 40.05 28.0708 31.3857 35.8396 20.7411 35.8396 C 17.5804 35.8387 14.4534 35.1391 11.6783 33.8154 L 1.89102 36.1169 C 1.84939 36.1276 1.80776 36.1321 1.76514 36.1321 Z" stroke-linecap="round" />
</g>
		<g transform="matrix(1 0 0 1 0.16 0.16)"  >
<path style="stroke: none; stroke-width: 1; stroke-dasharray: none; stroke-linecap: butt; stroke-dashoffset: 0; stroke-linejoin: miter; stroke-miterlimit: 4; fill: rgb(207,216,220); fill-rule: evenodd; opacity: 1;"  transform=" translate(-20.66, -18.66)" d="M 20.7409 1.63703 C 25.7748 1.63881 30.4984 3.39632 34.0516 6.5851 C 37.6038 9.77477 39.5602 14.0134 39.5582 18.5224 C 39.5543 27.8256 31.1119 35.3952 20.7409 35.3952 H 20.733 C 17.5842 35.3943 14.4889 34.6858 11.7406 33.3408 L 1.76496 35.6877 L 4.43503 26.9446 C 2.7878 24.3861 1.92156 21.4827 1.92255 18.509 C 1.92751 9.20582 10.3679 1.63703 20.7409 1.63703 Z M 20.7409 0.748047 C 9.82274 0.748047 0.936388 8.7151 0.931433 18.509 C 0.930442 21.5022 1.77289 24.4519 3.37057 27.0628 L 0.808534 35.4539 C 0.715369 35.7606 0.810517 36.0878 1.06028 36.3136 C 1.24859 36.4842 1.50331 36.5776 1.76496 36.5776 C 1.84921 36.5776 1.93345 36.5678 2.01671 36.5482 L 11.6177 34.2902 C 14.4205 35.5953 17.5624 36.2842 20.733 36.2851 C 31.659 36.2851 40.5454 28.3172 40.5503 18.5232 C 40.5523 13.777 38.4938 9.31428 34.7543 5.95748 C 31.0128 2.5998 26.0364 0.749825 20.7409 0.748047 Z" stroke-linecap="round" />
</g>
		<g transform="matrix(1 0 0 1 0.24 0.02)"  >
<path style="stroke: none; stroke-width: 1; stroke-dasharray: none; stroke-linecap: butt; stroke-dashoffset: 0; stroke-linejoin: miter; stroke-miterlimit: 4; fill: rgb(64,195,81); fill-rule: evenodd; opacity: 1;"  transform=" translate(-20.74, -18.52)" d="M 31.8038 8.59925 C 28.8502 5.9483 24.9244 4.48771 20.7459 4.48682 C 12.1192 4.48682 5.10309 10.7773 5.09912 18.5096 C 5.09813 21.1597 5.92472 23.7395 7.49069 25.9735 L 7.86335 26.5042 L 6.28251 31.679 L 12.2025 30.2869 L 12.7743 30.5909 C 15.1748 31.8692 17.9281 32.5449 20.735 32.5458 H 20.7409 C 29.3617 32.5458 36.3778 26.2544 36.3808 18.5212 C 36.3817 14.7741 34.7573 11.2502 31.8038 8.59925 Z" stroke-linecap="round" />
</g>
		<g transform="matrix(1 0 0 1 0.23 0.17)"  >
<path style="stroke: none; stroke-width: 1; stroke-dasharray: none; stroke-linecap: butt; stroke-dashoffset: 0; stroke-linejoin: miter; stroke-miterlimit: 4; fill: rgb(255,255,255); fill-rule: evenodd; opacity: 1;"  transform=" translate(-20.73, -18.67)" d="M 16.0367 11.456 C 15.6848 10.7538 15.3142 10.7395 14.9782 10.7271 C 14.7036 10.7164 14.3904 10.7173 14.0773 10.7173 C 13.7641 10.7173 13.2546 10.8231 12.8235 11.2454 C 12.3924 11.6676 11.1772 12.6873 11.1772 14.7622 C 11.1772 16.8371 12.8621 18.8426 13.097 19.1235 C 13.3319 19.4044 16.3499 23.7987 21.1291 25.4895 C 25.1005 26.8941 25.9092 26.615 26.7715 26.5447 C 27.6338 26.4745 29.5535 25.5251 29.945 24.5401 C 30.3365 23.5551 30.3365 22.7114 30.2196 22.5354 C 30.1016 22.3594 29.7884 22.2545 29.3186 22.0429 C 28.8489 21.8314 26.5366 20.8117 26.1054 20.6712 C 25.6743 20.5308 25.3611 20.4605 25.0469 20.8828 C 24.7337 21.3042 23.8328 22.2545 23.5583 22.5354 C 23.2837 22.8172 23.0092 22.8528 22.5394 22.6412 C 22.0696 22.4296 20.5552 21.9852 18.7583 20.5486 C 17.3608 19.4311 16.4173 18.0505 16.1427 17.6283 C 15.8682 17.2069 16.113 16.9784 16.3489 16.7677 C 16.56 16.5784 16.8187 16.2752 17.0546 16.029 C 17.2895 15.7827 17.3678 15.6067 17.5244 15.3258 C 17.681 15.044 17.6027 14.7977 17.4847 14.587 C 17.3688 14.3755 16.4549 12.2899 16.0367 11.456 Z" stroke-linecap="round" />
</g>
</g>
</g>
</svg>