<svg width="61" height="39" viewBox="0 0 61 39" fill="none" xmlns="http://www.w3.org/2000/svg">
<path d="M21.4991 4.49903C19.5363 8.0509 17.6962 9.35325 13.8933 10.4188C8.61834 11.7212 0.767226 16.3386 0.0311844 18.4697C-0.214163 19.1801 1.01257 20.4824 2.85268 21.3112C5.67417 22.8503 5.79685 23.0871 3.95674 24.5079C2.36198 25.5734 1.99396 26.7574 2.73001 29.2437C3.46605 31.73 3.83407 31.9668 4.20209 30.4277C4.57011 29.1253 5.91952 28.4149 8.12765 28.4149C13.1573 28.4149 18.0642 24.2711 18.0642 20.0088C18.0642 17.049 18.5549 16.5754 21.4991 16.5754C23.3392 16.5754 27.0194 17.1674 29.7182 17.8777C32.417 18.7065 37.692 19.6537 41.3722 20.2456C47.0152 21.0744 46.4018 21.0744 37.692 20.7192C31.9263 20.364 25.7927 19.8905 23.9526 19.4169C21.0084 18.8249 20.5177 19.0617 20.5177 21.3112C20.5177 22.7319 18.8003 25.455 16.7148 27.4678C14.6294 29.4805 13.5253 31.4932 14.1387 31.8484C14.6294 32.2036 15.4881 33.3875 15.8561 34.3347C16.5921 36.4658 22.6031 39.7809 23.7072 38.8337C24.0752 38.3602 23.8299 37.0578 23.2165 35.8738C22.1124 33.8611 22.6031 33.5059 27.3874 32.4404C31.681 31.4932 33.1531 31.4932 34.1345 32.7956C34.9932 33.6243 36.4653 34.3347 37.692 34.3347C40.0228 34.3347 43.8257 30.7828 43.8257 28.6517C43.8257 26.7574 45.4204 26.8758 47.3832 28.6517C48.61 29.9541 49.2233 29.7173 50.5727 27.9413C51.5541 26.7574 52.5355 25.0999 52.7809 24.5079C53.0262 23.6791 54.3756 24.0343 56.0931 25.2182C57.8105 26.2838 59.5279 27.231 60.0186 27.231C60.632 27.231 61 23.2055 61 18.3513C61 13.4971 60.632 9.47164 60.1413 9.47164C59.6506 9.47164 57.8105 10.8924 55.9704 12.5499L52.6582 15.6282L50.9408 13.1419C48.978 10.0636 47.6286 10.0636 45.5431 12.6683C44.071 14.681 43.9484 14.5627 43.8257 12.1947C43.8257 9.82683 38.6734 4.73582 36.3426 4.73582C35.7292 4.73582 34.5025 6.15657 33.5211 7.9325L31.8037 11.2476L30.945 7.69571C29.9636 4.02545 27.0194 -1.11833e-06 25.302 -1.11833e-06C24.6886 -1.11833e-06 23.0938 2.01272 21.4991 4.49903ZM14.384 18.3513C14.384 19.2985 13.5253 20.1272 12.5439 20.1272C11.5625 20.1272 10.7038 19.2985 10.7038 18.3513C10.7038 17.4041 11.5625 16.5754 12.5439 16.5754C13.5253 16.5754 14.384 17.4041 14.384 18.3513Z" fill="#292827"/>
</svg>
