<svg width="75" height="44" viewBox="0 0 75 44" fill="none" xmlns="http://www.w3.org/2000/svg">
<path d="M30.7423 35.701L31.1737 44H26.9812L23.872 35.4638L30.7423 35.701ZM54.798 35.7519L54.7437 36.4266L57.6436 44H61.5485L60.6442 35.2943C58.707 35.5524 56.7563 35.7052 54.8012 35.7519H54.798ZM60.0371 10.4744C60.7355 10.4657 61.4324 10.4081 62.1221 10.3018C70.3026 9.12794 67.9523 2.66684 67.9523 2.66684C67.9523 2.66684 61.5038 4.05334 59.5114 6.27483C59.5146 6.27483 55.0185 10.4744 60.0403 10.4744H60.0371ZM73.1147 6.57215C73.1147 6.57215 72.0266 6.57215 70.571 6.69848C70.2289 8.04617 69.4924 9.2707 68.4492 10.2264C68.8964 10.9229 69.2935 11.6482 69.638 12.397C73.6723 10.9443 73.1195 6.57215 73.1195 6.57215H73.1147ZM75 22.0055V28.3972C75 28.3972 66.508 33.3116 53.5103 33.3116C53.1603 33.3116 52.8009 33.2885 52.4446 33.2808L51.569 44H48.5333L44.6268 33.6998L18.6489 32.7955L17.1471 44H13.5313C13.5313 44 5.83818 28.351 9.82776 15.9526C8.94101 15.361 8.00952 14.694 7.15473 13.9961C6.33508 14.4043 5.51543 14.6293 4.7581 14.5892C2.24005 14.4583 0.225283 12.6281 0 12.4186L1.78309 10.6531C2.1985 11.0382 3.57417 12.0596 4.89551 12.1274C4.98642 12.1312 5.07748 12.1255 5.16712 12.1105C4.89358 11.799 4.64823 11.4656 4.43376 11.1137C3.53103 9.59935 3.31533 7.9833 3.82022 6.67845C4.0388 6.13656 4.3813 5.64916 4.82224 5.25254C5.26318 4.85593 5.79121 4.56029 6.36704 4.38764C8.1709 3.80069 10.657 3.87155 11.9192 5.14251C12.389 5.61547 13.076 6.65842 12.3985 8.33147C11.825 9.76265 10.665 11.3109 9.3053 12.5095C9.76385 12.8638 10.2544 13.2197 10.7577 13.5678C12.2691 10.3558 14.7265 7.4703 18.5099 5.28579C24.4884 1.81015 31.341 -0.0180345 38.322 0.000134112C45.0371 0.0181079 51.6468 1.6106 57.5813 4.64029C57.1313 5.08482 56.7163 5.56115 56.3399 6.06531C55.1256 7.70908 54.7949 9.22191 55.3573 10.5622C55.8126 11.6406 56.9918 12.9377 60.0291 12.9377C60.8538 12.9294 61.6767 12.8625 62.4912 12.7375C63.8215 12.564 65.1153 12.1908 66.3258 11.6313C68.8423 15.5937 69.0771 20.6698 70.7995 21.0287C72.843 21.4478 75 22.0055 75 22.0055ZM10.0211 7.44411C10.0898 7.27157 10.1889 6.965 10.0722 6.84791C9.86132 6.63532 9.3037 6.49975 8.64703 6.49975C8.15021 6.49701 7.65613 6.57086 7.18349 6.7185C6.68339 6.88026 6.36544 7.1514 6.21046 7.54733C5.97718 8.15585 6.13696 9.02934 6.64984 9.88743C6.86798 10.2342 7.1246 10.557 7.41516 10.8503C8.47926 9.95368 9.52259 8.68734 10.0211 7.44411ZM62.929 20.0074C62.929 19.7316 62.8442 19.4621 62.6853 19.2328C62.5264 19.0035 62.3006 18.8248 62.0364 18.7193C61.7722 18.6138 61.4814 18.5861 61.2009 18.6399C60.9205 18.6937 60.6628 18.8265 60.4606 19.0215C60.2584 19.2165 60.1206 19.4649 60.0649 19.7354C60.0091 20.0058 60.0377 20.2861 60.1471 20.5409C60.2566 20.7957 60.4419 21.0134 60.6797 21.1666C60.9175 21.3198 61.1971 21.4016 61.483 21.4016C61.8665 21.4016 62.2343 21.2547 62.5055 20.9932C62.7767 20.7317 62.929 20.3771 62.929 20.0074Z" fill="#292827"/>
</svg>
