<svg width="41" height="39" viewBox="0 0 41 39" fill="none" xmlns="http://www.w3.org/2000/svg">
<path fill-rule="evenodd" clip-rule="evenodd" d="M35.0275 5.64198C31.1704 2.00646 26.0454 0 20.5868 0C9.33578 0 0.173503 8.62965 0.173503 19.2343C0.166829 22.6245 1.10775 25.933 2.89616 28.8515L0 38.8209L10.8239 36.1414C13.8001 37.6761 17.1634 38.4812 20.5801 38.4875H20.5868C31.8377 38.4875 40.9933 29.8578 41 19.2469C41 14.1081 38.8779 9.27751 35.0275 5.64198ZM20.5868 35.2357H20.5801C17.5371 35.2357 14.5475 34.462 11.945 33.0091L11.3244 32.6631L4.89811 34.2482L6.61312 28.3483L6.21273 27.7445C4.51107 25.1971 3.61686 22.2534 3.61686 19.2343C3.61686 10.4223 11.231 3.25184 20.5934 3.25184C25.1245 3.25184 29.382 4.91865 32.5851 7.93777C35.7882 10.9632 37.55 14.9761 37.55 19.2469C37.55 28.0652 29.9359 35.2357 20.5868 35.2357ZM29.8892 23.2598C29.382 23.0208 26.8729 21.8572 26.4058 21.6999C25.9386 21.5364 25.5983 21.4609 25.258 21.9389C24.9176 22.4233 23.9434 23.5051 23.6431 23.8259C23.3494 24.1404 23.0492 24.1844 22.542 23.9454C22.0282 23.7064 20.3866 23.1969 18.438 21.5553C16.9232 20.2847 15.8955 18.706 15.6019 18.2279C15.3016 17.7436 15.5685 17.4857 15.8221 17.2467C16.0557 17.0329 16.3359 16.6869 16.5895 16.4039C16.8431 16.1271 16.9299 15.9259 17.1034 15.6051C17.2702 15.2843 17.1834 15.0013 17.0566 14.7622C16.9298 14.5232 15.9089 12.152 15.4818 11.1896C15.068 10.2524 14.6476 10.3845 14.334 10.3656C14.0404 10.3531 13.7 10.3531 13.3597 10.3531C13.0194 10.3531 12.4655 10.4726 11.9984 10.9569C11.5313 11.4349 10.2166 12.5985 10.2166 14.9635C10.2166 17.3285 12.0451 19.618 12.2987 19.9388C12.5522 20.2533 15.8955 25.109 21.0138 27.191C22.2284 27.6879 23.1759 27.9835 23.9167 28.2036C25.1379 28.5684 26.2523 28.5181 27.1331 28.3986C28.1141 28.2602 30.1494 27.235 30.5765 26.1091C30.9969 24.9895 30.9969 24.0272 30.8701 23.8259C30.7433 23.6246 30.403 23.5051 29.8892 23.2598Z" fill="white"/>
</svg>
