<svg width="43" height="36" viewBox="0 0 43 36" fill="none" xmlns="http://www.w3.org/2000/svg">
<path d="M12.6435 0C5.7033 0 0 4.75645 0 10.5586V25.3507C0 31.1465 5.69567 35.9093 12.6435 35.9093H30.3565C37.2967 35.9093 43 31.1528 43 25.3507V10.5586C43 4.76283 37.3043 0 30.3565 0H12.6435ZM12.6435 3.26448H30.3565C35.1895 3.26448 39.0909 6.52259 39.0909 10.5586V25.3507C39.0909 29.3867 35.1895 32.6448 30.3565 32.6448H12.6435C7.81055 32.6448 3.90909 29.3867 3.90909 25.3507V10.5586C3.90909 6.52259 7.81055 3.26448 12.6435 3.26448ZM33.044 6.83501C32.0591 6.83501 31.2727 7.49173 31.2727 8.31423C31.2727 9.13672 32.0591 9.79344 33.044 9.79344C34.0289 9.79344 34.8153 9.13672 34.8153 8.31423C34.8153 7.49173 34.0289 6.83501 33.044 6.83501ZM21.5 8.1612C15.0485 8.1612 9.77273 12.567 9.77273 17.9546C9.77273 23.3423 15.0485 27.7481 21.5 27.7481C27.9515 27.7481 33.2273 23.3423 33.2273 17.9546C33.2273 12.567 27.9515 8.1612 21.5 8.1612ZM21.5 11.4257C25.8443 11.4257 29.3182 14.3267 29.3182 17.9546C29.3182 21.5826 25.8443 24.4836 21.5 24.4836C17.1557 24.4836 13.6818 21.5826 13.6818 17.9546C13.6818 14.3267 17.1557 11.4257 21.5 11.4257Z" fill="white"/>
</svg>
