<svg width="49" height="39" viewBox="0 0 49 39" fill="none" xmlns="http://www.w3.org/2000/svg">
<path d="M24.5 0C10.9932 0 0 8.70951 0 19.4104C0 30.1114 10.9932 38.8209 24.5 38.8209C38.0068 38.8209 49 30.1114 49 19.4104C49 8.70951 38.0068 0 24.5 0ZM24.5 3.23507C35.8 3.23507 44.9167 10.4579 44.9167 19.4104C44.9167 27.5424 37.3864 34.2291 27.5386 35.3899V24.1272H33.3525L34.2657 19.4483H27.5386V16.8925C27.5386 14.9498 28.3442 13.2246 30.637 13.2246H34.3215V9.14287C33.6743 9.07332 32.3047 8.92172 29.7158 8.92172C24.3095 8.92172 21.1424 11.183 21.1424 16.3365V19.4483H15.5837V24.1272H21.1424V35.3488C11.4514 34.0825 4.08333 27.4545 4.08333 19.4104C4.08333 10.4579 13.2 3.23507 24.5 3.23507Z" fill="white"/>
</svg>
