<?xml version="1.0" encoding="UTF-8" standalone="no" ?>
<!DOCTYPE svg PUBLIC "-//W3C//DTD SVG 1.1//EN" "http://www.w3.org/Graphics/SVG/1.1/DTD/svg11.dtd">
<svg xmlns="http://www.w3.org/2000/svg" xmlns:xlink="http://www.w3.org/1999/xlink" version="1.1" width="640" height="480" viewBox="0 0 640 480" xml:space="preserve">
<desc>Created with Fabric.js 3.6.6</desc>
<defs>
</defs>
<g transform="matrix(0.72 0 0 0.72 330.26 283.26)"  >
<g style=""   >
		<g transform="matrix(0.13 0 0 -0.13 -184.94 -6.55)"  >
<path style="stroke: none; stroke-width: 1; stroke-dasharray: none; stroke-linecap: butt; stroke-dashoffset: 0; stroke-linejoin: miter; stroke-miterlimit: 4; fill: rgb(0,0,0); fill-rule: nonzero; opacity: 1;"  transform=" translate(-1202.91, -2559.22)" d="M 572 4545 c -209 -46 -385 -215 -448 -430 c -23 -80 -23 -230 0 -309 c 24 -80 65 -161 115 -224 c 23 -29 37 -52 32 -52 c -5 0 -34 -22 -64 -50 c -70 -64 -100 -130 -101 -220 c 0 -106 49 -193 143 -256 c 32 -21 41 -32 38 -48 c -3 -12 -69 -452 -148 -979 c -136 -911 -142 -961 -132 -1023 c 31 -181 179 -329 380 -379 c 53 -14 163 -15 845 -13 l 783 3 l 60 24 c 203 80 328 241 327 421 c 0 44 -57 456 -141 1011 c -77 514 -141 942 -141 951 c 0 9 14 21 30 28 c 44 18 115 102 134 157 c 21 60 20 147 -1 208 c -15 47 -91 135 -137 160 c -17 10 -15 14 23 60 c 121 145 162 354 108 543 c -55 189 -189 327 -394 405 c -57 21 -68 22 -653 24 c -479 1 -607 -1 -658 -12 z m 134 -210 c 3 -14 20 -37 37 -51 c 26 -22 38 -25 71 -21 c 45 6 86 44 86 78 c 0 18 10 19 300 19 l 300 0 l 6 -25 c 3 -14 20 -37 37 -51 c 26 -22 38 -25 71 -21 c 45 6 86 44 86 78 c 0 24 24 25 104 4 c 113 -30 213 -114 264 -223 c 24 -50 27 -69 27 -162 c 0 -93 -3 -112 -27 -162 c -31 -67 -103 -147 -163 -183 c -57 -33 -145 -55 -222 -55 c -54 0 -67 -4 -93 -27 c -20 -18 -33 -41 -37 -65 c -5 -33 -2 -41 30 -73 l 35 -35 l 201 0 c 220 0 247 -5 269 -55 c 24 -52 4 -114 -45 -134 c -21 -8 -246 -11 -856 -9 l -829 3 l -24 28 c -33 38 -33 96 0 134 l 24 28 l 222 5 l 222 5 l 24 28 c 32 38 33 96 1 133 c -21 24 -33 27 -118 35 c -52 4 -114 15 -139 24 c -66 23 -145 81 -184 134 c -168 230 -58 552 214 625 c 81 22 99 20 106 -9 z m 194 -1875 l 0 -500 l -281 0 l -281 0 l 6 33 c 3 17 35 230 71 472 c 36 242 68 452 71 468 l 6 27 l 204 0 l 204 0 l 0 -500 z m 400 0 l 0 -500 l -100 0 l -100 0 l 0 500 l 0 500 l 100 0 l 100 0 l 0 -500 z m 620 490 c 0 -9 133 -910 143 -967 l 4 -23 l -283 0 l -284 0 l 0 500 l 0 500 l 210 0 c 137 0 210 -4 210 -10 z m 228 -1542 c 29 -194 52 -373 52 -398 c -1 -91 -59 -167 -165 -217 l -60 -28 l -775 0 l -775 0 l -56 28 c -73 35 -144 111 -159 168 c -11 39 -6 86 40 394 c 29 192 54 362 57 378 l 6 27 l 891 0 l 892 0 l 52 -352 z" stroke-linecap="round" />
</g>
		<g transform="matrix(0.13 0 0 -0.13 -181.33 -213.66)"  >
<path style="stroke: none; stroke-width: 1; stroke-dasharray: none; stroke-linecap: butt; stroke-dashoffset: 0; stroke-linejoin: miter; stroke-miterlimit: 4; fill: rgb(0,0,0); fill-rule: nonzero; opacity: 1;"  transform=" translate(-1202.5, -4160)" d="M 1139 4232 c -28 -25 -34 -37 -34 -72 c 0 -35 6 -47 34 -72 c 29 -26 39 -30 75 -25 c 54 7 86 44 86 97 c 0 53 -32 90 -86 97 c -36 5 -46 1 -75 -25 z" stroke-linecap="round" />
</g>
		<g transform="matrix(0.13 0 0 -0.13 -181.49 -120.14)"  >
<path style="stroke: none; stroke-width: 1; stroke-dasharray: none; stroke-linecap: butt; stroke-dashoffset: 0; stroke-linejoin: miter; stroke-miterlimit: 4; fill: rgb(0,0,0); fill-rule: nonzero; opacity: 1;"  transform=" translate(-1201.35, -3458.51)" d="M 1141 3534 c -21 -19 -34 -42 -38 -66 c -5 -33 -2 -41 30 -73 c 46 -46 95 -49 138 -6 c 60 60 27 156 -57 168 c -35 4 -46 1 -73 -23 z" stroke-linecap="round" />
</g>
		<g transform="matrix(0.13 0 0 -0.13 176.85 -6.47)"  >
<path style="stroke: none; stroke-width: 1; stroke-dasharray: none; stroke-linecap: butt; stroke-dashoffset: 0; stroke-linejoin: miter; stroke-miterlimit: 4; fill: rgb(0,0,0); fill-rule: nonzero; opacity: 1;"  transform=" translate(-3916.38, -2558.5)" d="M 3320 4553 c -110 -18 -241 -87 -322 -168 c -80 -80 -125 -156 -155 -257 c -54 -189 -13 -398 108 -543 c 38 -46 40 -50 23 -60 c -46 -25 -122 -113 -137 -160 c -21 -61 -22 -148 -1 -208 c 19 -55 90 -139 134 -157 c 16 -7 30 -19 30 -28 c 0 -8 -66 -452 -146 -986 c -134 -896 -144 -976 -135 -1031 c 32 -179 187 -334 382 -380 c 96 -22 1546 -22 1634 0 c 99 25 183 72 250 140 c 72 71 112 147 128 239 c 10 62 4 112 -132 1023 c -79 527 -145 967 -148 979 c -3 17 6 28 45 53 c 121 77 170 238 112 369 c -21 49 -117 152 -141 152 c -5 0 9 23 32 52 c 50 63 91 144 115 224 c 23 79 23 229 0 309 c -48 163 -166 309 -307 378 c -134 66 -147 67 -779 65 c -311 0 -576 -3 -590 -5 z m 100 -212 c 0 -34 41 -72 86 -78 c 33 -4 45 -1 71 21 c 17 14 34 37 37 51 l 6 25 l 300 0 c 290 0 300 -1 300 -19 c 0 -34 41 -72 86 -78 c 33 -4 45 -1 71 21 c 17 14 34 38 37 52 c 7 25 9 26 52 19 c 228 -34 379 -235 343 -457 c -26 -158 -139 -282 -294 -322 c -88 -24 -1112 -24 -1200 -1 c -111 29 -213 116 -263 223 c -24 50 -27 69 -27 162 c 0 93 3 112 27 162 c 50 107 150 193 260 222 c 78 21 108 20 108 -3 z m 1366 -1014 c 33 -38 33 -96 0 -134 l -24 -28 l -829 -3 c -610 -2 -835 1 -856 9 c -50 21 -71 88 -43 138 c 29 52 -1 51 894 48 l 834 -2 l 24 -28 z m -1166 -867 l 0 -500 l -284 0 l -283 0 l 4 23 c 10 57 143 958 143 967 c 0 6 73 10 210 10 l 210 0 l 0 -500 z m 400 0 l 0 -500 l -100 0 l -100 0 l 0 500 l 0 500 l 100 0 l 100 0 l 0 -500 z m 614 473 c 3 -16 35 -226 71 -468 c 36 -242 68 -455 71 -472 l 6 -33 l -281 0 l -281 0 l 0 500 l 0 500 l 204 0 l 204 0 l 6 -27 z m 181 -1205 c 42 -244 105 -711 100 -744 c -8 -57 -56 -126 -113 -164 c -94 -62 -73 -61 -908 -58 c -756 3 -759 3 -806 25 c -104 48 -171 138 -171 228 c 1 27 24 202 52 387 c 28 186 51 342 51 348 c 0 7 286 10 895 10 l 894 0 l 6 -32 z" stroke-linecap="round" />
</g>
		<g transform="matrix(0.13 0 0 -0.13 180.69 -213.63)"  >
<path style="stroke: none; stroke-width: 1; stroke-dasharray: none; stroke-linecap: butt; stroke-dashoffset: 0; stroke-linejoin: miter; stroke-miterlimit: 4; fill: rgb(0,0,0); fill-rule: nonzero; opacity: 1;"  transform=" translate(-3917.64, -4159.72)" d="M 3874 4250 c -55 -22 -72 -108 -31 -155 c 14 -17 36 -28 63 -32 c 36 -5 46 -1 75 25 c 28 25 34 37 34 72 c 0 72 -72 118 -141 90 z" stroke-linecap="round" />
</g>
</g>
</g>
<g transform="matrix(1 0 0 1 231 353)"  >
<path style="stroke: rgb(0,0,0); stroke-width: 1; stroke-dasharray: none; stroke-linecap: round; stroke-dashoffset: 0; stroke-linejoin: round; stroke-miterlimit: 10; fill: none; fill-rule: nonzero; opacity: 1;"  transform=" translate(-231, -353)" d="M 230.999 353 L 231.001 353" stroke-linecap="round" />
</g>
<g transform="matrix(1 0 0 1 195.94 403)"  >
<path style="stroke: rgb(0,0,0); stroke-width: 81; stroke-dasharray: none; stroke-linecap: round; stroke-dashoffset: 0; stroke-linejoin: round; stroke-miterlimit: 10; fill: none; fill-rule: nonzero; opacity: 1;"  transform=" translate(-195.94, -403)" d="M 140 388.919 Q 140 389 140 389.5 Q 140 390 140 390.5 Q 140 391 140 391.5 Q 140 392 140 394 Q 140 396 140 396.5 Q 140 397 140 397.5 Q 140 398 140 398.5 Q 140 399 140.5 399.5 Q 141 400 141.5 400 Q 142 400 142.5 400 Q 143 400 143.5 400 Q 144 400 144.5 400 Q 145 400 145.5 400.5 Q 146 401 147.5 401 Q 149 401 151 401.5 Q 153 402 155 402.5 Q 157 403 158 403 Q 159 403 159.5 403 Q 160 403 160 402.5 Q 160 402 159.5 401.5 Q 159 401 158.5 400.5 Q 158 400 156.5 398.5 Q 155 397 154 396 Q 153 395 152 394 Q 151 393 150.5 392.5 Q 150 392 149.5 392 Q 149 392 148 391.5 Q 147 391 146.5 391 Q 146 391 146 390.5 Q 146 390 145.5 389.5 Q 145 389 144.5 389 Q 144 389 143.5 389 Q 143 389 142.5 389 Q 142 389 141.5 389 Q 141 389 140.5 389 Q 140 389 139.5 389 Q 139 389 138.5 389 Q 138 389 137.5 389 Q 137 389 136.5 389 Q 136 389 135.5 389 Q 135 389 134.5 389 Q 134 389 133.5 389 Q 133 389 132.5 389 Q 132 389 132 388.5 Q 132 388 132 388.5 Q 132 389 132 389.5 Q 132 390 132 390.5 Q 132 391 132 391.5 Q 132 392 132 392.5 Q 132 393 132 393.5 Q 132 394 132 394.5 Q 132 395 132 395.5 Q 132 396 131.5 396.5 Q 131 397 130.5 398 Q 130 399 130 400 Q 130 401 129.5 402 Q 129 403 129 403.5 Q 129 404 129 404.5 Q 129 405 129 405.5 Q 129 406 129 406.5 Q 129 407 129.5 407 Q 130 407 130 407.5 Q 130 408 130.5 408 Q 131 408 131.5 408.5 Q 132 409 132.5 409 Q 133 409 133 409.5 Q 133 410 134 410.5 Q 135 411 135 411.5 Q 135 412 135.5 412 Q 136 412 136.5 412.5 Q 137 413 137 413.5 Q 137 414 138 414.5 Q 139 415 139.5 415.5 Q 140 416 140.5 416 Q 141 416 141 416.5 Q 141 417 141.5 417 Q 142 417 142.5 417 Q 143 417 143.5 417 Q 144 417 144.5 417 Q 145 417 145.5 417.5 Q 146 418 146.5 418 Q 147 418 147.5 418 Q 148 418 148.5 418 Q 149 418 149.5 418 Q 150 418 151 418 Q 152 418 152.5 417.5 Q 153 417 153.5 417 Q 154 417 154.5 417 Q 155 417 155.5 416.5 Q 156 416 157 416 Q 158 416 159 416 Q 160 416 161 415.5 Q 162 415 163 415 Q 164 415 165 415 Q 166 415 166.5 415 Q 167 415 168 415 Q 169 415 169.5 415 Q 170 415 171.5 415 Q 173 415 174 415 Q 175 415 176 415 Q 177 415 177.5 415 Q 178 415 179 415 Q 180 415 181.5 415 Q 183 415 184.5 415 Q 186 415 187 415 Q 188 415 189 415 Q 190 415 190.5 415 Q 191 415 191.5 415 Q 192 415 192.5 415 Q 193 415 193.5 415 Q 194 415 194.5 415 Q 195 415 195.5 415 Q 196 415 196.5 415 Q 197 415 198 415 Q 199 415 200 415 Q 201 415 201.5 415 Q 202 415 202.5 415 Q 203 415 203.5 415 Q 204 415 204.5 415 Q 205 415 205.5 415 Q 206 415 206.5 415 Q 207 415 207.5 415 Q 208 415 209 415 Q 210 415 210.5 415 Q 211 415 211.5 415 Q 212 415 213.5 415 Q 215 415 215.5 415 Q 216 415 216.5 415 Q 217 415 217.5 415 Q 218 415 218.5 415 Q 219 415 219.5 415 Q 220 415 220.5 415 Q 221 415 221.5 415 Q 222 415 222.5 415 Q 223 415 223.5 415 Q 224 415 224.5 415 Q 225 415 225.5 415 Q 226 415 226.5 415 Q 227 415 227.5 415.5 Q 228 416 228.5 416 Q 229 416 230 416 Q 231 416 231.5 416 Q 232 416 233 416 Q 234 416 234.5 416 Q 235 416 235.5 416 Q 236 416 236.5 416 Q 237 416 237.5 416 Q 238 416 238.5 416 Q 239 416 239.5 416 Q 240 416 240 416.5 Q 240 417 240.5 417 Q 241 417 241.5 417 Q 242 417 242.5 417 Q 243 417 243.5 417 Q 244 417 244.5 417 Q 245 417 246 417 Q 247 417 247.5 417 Q 248 417 248.5 417 Q 249 417 249.5 417 Q 250 417 250.5 417 Q 251 417 251 416.5 Q 251 416 251.5 416 Q 252 416 252.5 416 Q 253 416 253.5 416 Q 254 416 254 415.5 Q 254 415 254.5 415 Q 255 415 255 414.5 Q 255 414 255 413.5 Q 255 413 255 412.5 Q 255 412 255 411.5 Q 255 411 255 410.5 Q 255 410 255 409.5 Q 255 409 254.5 408.5 Q 254 408 254 407.5 Q 254 407 254 406.5 Q 254 406 253.5 406 Q 253 406 253 405.5 Q 253 405 253 404.5 Q 253 404 253 403 Q 253 402 253 401.5 Q 253 401 253 400.5 Q 253 400 253 399.5 Q 253 399 253 398.5 Q 253 398 253 397.5 Q 253 397 253 396.5 Q 253 396 253 395.5 Q 253 395 253.5 395 Q 254 395 254.5 394.5 Q 255 394 255 393.5 Q 255 393 255 392.5 Q 255 392 255 391.5 Q 255 391 254.5 391 Q 254 391 254 390.5 Q 254 390 253.5 390 Q 253 390 252.5 390 Q 252 390 251.5 390 Q 251 390 250.5 390 Q 250 390 249.5 390 Q 249 390 248.5 390 Q 248 390 247.5 390 Q 247 390 246.5 390 Q 246 390 245.5 390 Q 245 390 244.5 390.5 Q 244 391 243 391 Q 242 391 241.5 391 Q 241 391 240.5 391 Q 240 391 239 391 Q 238 391 237.5 391 Q 237 391 236.5 391 Q 236 391 235.5 391 Q 235 391 234 391 Q 233 391 232 391 Q 231 391 230.5 391 Q 230 391 229 391 Q 228 391 227.5 391 Q 227 391 226 391 Q 225 391 224 390.5 Q 223 390 222.5 390 Q 222 390 221.5 390 Q 221 390 220 390 Q 219 390 218.5 390 Q 218 390 217 390 Q 216 390 215.5 390 Q 215 390 214.5 390 Q 214 390 213.5 390 Q 213 390 212 390 Q 211 390 210 389.5 Q 209 389 208.5 389 Q 208 389 207.5 389 Q 207 389 206.5 389 Q 206 389 205 389 Q 204 389 203.5 389 Q 203 389 202 389 Q 201 389 200.5 389 Q 200 389 199.5 389 Q 199 389 198.5 389 Q 198 389 197.5 389 Q 197 389 196.5 389 Q 196 389 195.5 389 Q 195 389 194.5 389 Q 194 389 193.5 389 Q 193 389 192.5 389 Q 192 389 191.5 389 Q 191 389 190.5 389 Q 190 389 189.5 389 Q 189 389 188.5 389 Q 188 389 187.5 389 Q 187 389 186.5 389 Q 186 389 185.5 389 Q 185 389 184 388.5 Q 183 388 182.5 388 Q 182 388 181.5 388 Q 181 388 180.5 388 Q 180 388 179.5 388 Q 179 388 179.5 388 Q 180 388 181 388 Q 182 388 184 389 Q 186 390 188 390.5 Q 190 391 192.5 391.5 Q 195 392 197 393 Q 199 394 201 394.5 Q 203 395 205 395 Q 207 395 209 395.5 Q 211 396 213 396 Q 215 396 217 396 Q 219 396 219.5 396.5 Q 220 397 221.5 397 Q 223 397 223.5 397 Q 224 397 224.5 397 Q 225 397 225.5 397 Q 226 397 226.5 397 Q 227 397 227.5 397 Q 228 397 228.5 397 Q 229 397 229.5 397 Q 230 397 230.5 397 Q 231 397 231.5 397 Q 232 397 232.5 397 Q 233 397 233.5 397 Q 234 397 234.5 397 Q 235 397 235.5 396.5 Q 236 396 236.5 396 Q 237 396 237.5 396 Q 238 396 238.5 396 Q 239 396 239.5 396 Q 240 396 240.5 396 Q 241 396 241.5 396 Q 242 396 242.5 396 Q 243 396 243.5 396 Q 244 396 244.5 396 Q 245 396 245.5 396 Q 246 396 246.5 396 Q 247 396 247.5 395.5 Q 248 395 248.5 395 Q 249 395 249 394.5 Q 249 394 249.5 394 Q 250 394 250 393.5 Q 250 393 250.5 393 Q 251 393 251.5 393 Q 252 393 252.5 393 Q 253 393 253.5 393 Q 254 393 254.5 393 Q 255 393 255.5 393 Q 256 393 256.5 393 Q 257 393 257 392.5 Q 257 392 257.5 392 Q 258 392 258.5 392 Q 259 392 259 391.5 Q 259 391 259 390.5 Q 259 390 259.5 390 Q 260 390 260.5 390 Q 261 390 261 389.5 Q 261 389 261.5 389 Q 262 389 262.5 389 Q 263 389 262.5 389 Q 262 389 262 389.5 Q 262 390 261.5 390.5 Q 261 391 259.5 391.5 Q 258 392 257 393.5 Q 256 395 255 395.5 Q 254 396 253.5 397 Q 253 398 252.5 398.5 Q 252 399 251.5 399.5 L 250.919 400.081" stroke-linecap="round" />
</g>
<g transform="matrix(1 0 0 1 457 324)"  >
<path style="stroke: rgb(0,0,0); stroke-width: 26; stroke-dasharray: none; stroke-linecap: round; stroke-dashoffset: 0; stroke-linejoin: round; stroke-miterlimit: 10; fill: none; fill-rule: nonzero; opacity: 1;"  transform=" translate(-457, -324)" d="M 456.974 324 L 457.026 324" stroke-linecap="round" />
</g>
<g transform="matrix(1 0 0 1 459.06 288.49)"  >
<path style="stroke: rgb(0,0,0); stroke-width: 26; stroke-dasharray: none; stroke-linecap: round; stroke-dashoffset: 0; stroke-linejoin: round; stroke-miterlimit: 10; fill: none; fill-rule: nonzero; opacity: 1;"  transform=" translate(-459.06, -288.49)" d="M 457 318.974 Q 457 319 457 319.5 Q 457 320 457 320.5 Q 457 321 457 321.5 Q 457 322 457 322.5 Q 457 323 457 323.5 Q 457 324 457 324.5 Q 457 325 457 325.5 Q 457 326 457 326.5 Q 457 327 457.5 327 Q 458 327 458.5 327 Q 459 327 459 327.5 Q 459 328 459.5 328 Q 460 328 460.5 328 Q 461 328 461 327.5 Q 461 327 461 326.5 Q 461 326 461 325.5 Q 461 325 461 324 Q 461 323 461 322 Q 461 321 461 320 Q 461 319 461 318 Q 461 317 461 316.5 Q 461 316 461 315.5 Q 461 315 460.5 314.5 Q 460 314 460 313.5 Q 460 313 460 312.5 Q 460 312 459.5 311.5 Q 459 311 459 310.5 Q 459 310 459 309.5 Q 459 309 459 308.5 Q 459 308 459 307.5 Q 459 307 459 306.5 Q 459 306 459 305.5 Q 459 305 459 304.5 Q 459 304 459 303.5 Q 459 303 459 302 Q 459 301 459 300 Q 459 299 459 298 Q 459 297 459 296.5 Q 459 296 459 295 Q 459 294 459 293.5 Q 459 293 459 292.5 Q 459 292 459 291.5 Q 459 291 459 290.5 Q 459 290 459 289.5 Q 459 289 459 288.5 Q 459 288 459 287.5 Q 459 287 459 286.5 Q 459 286 459 285.5 Q 459 285 459 284.5 Q 459 284 459 283.5 Q 459 283 459 282.5 Q 459 282 458.5 282 Q 458 282 458 281.5 Q 458 281 458 280.5 Q 458 280 458 279.5 Q 458 279 458 278.5 Q 458 278 458 277 Q 458 276 458 275.5 Q 458 275 458 274.5 Q 458 274 458 273.5 Q 458 273 458 272.5 Q 458 272 458 271.5 Q 458 271 458 270.5 Q 458 270 458 269.5 Q 458 269 458 268 Q 458 267 458 266.5 Q 458 266 458.5 265 Q 459 264 459 263.5 Q 459 263 459 262 Q 459 261 459 260.5 Q 459 260 459.5 259.5 Q 460 259 460 258.5 Q 460 258 460 257.5 Q 460 257 460.5 256.5 Q 461 256 461 255.5 Q 461 255 461 254.5 Q 461 254 461 253.5 Q 461 253 460.5 253 Q 460 253 460 252.5 Q 460 252 459.5 252 Q 459 252 458.5 252 Q 458 252 457.5 252 Q 457 252 457 251.5 Q 457 251 456.5 251 Q 456 251 456.5 251 Q 457 251 457.5 251 Q 458 251 458.5 251 Q 459 251 459.5 251 Q 460 251 460 250.5 Q 460 250 460.5 250 Q 461 250 461.5 250 Q 462 250 462 249.5 L 462 248.974" stroke-linecap="round" />
</g>
</svg>