<svg width="512" height="457" xmlns="http://www.w3.org/2000/svg">

 <g>
  <title>Layer 1</title>
  <g stroke="null">
   <path stroke="null" fill="#D60000" d="m134.94306,7.7543c-64.71153,7.76412 -109.65328,48.8028 -124.36506,113.57874c-2.41428,10.53716 -2.64373,13.86424 -2.64373,53.35083c0,39.37559 0.22945,42.81367 2.52817,52.90685c7.12643,30.39144 20.34509,55.12582 44.94175,83.96426c20.91956,24.51239 70.11372,69.32305 104.59528,95.27746c17.81608,13.53218 44.82703,30.39144 59.99854,37.60059c33.44734,15.97222 42.75776,15.75024 76.4354,-1.10903c27.81486,-14.08623 55.17082,-33.27455 94.48009,-66.32803c13.21865,-11.20312 57.24008,-54.79284 65.05571,-64.44296c19.4256,-24.06841 35.97635,-55.79088 42.75776,-81.74528c4.71299,-18.30128 5.40219,-27.61841 4.82772,-64.77594c-0.57447,-37.93266 -1.37923,-44.14469 -8.85068,-65.55107c-16.66631,-48.35974 -56.89507,-82.18926 -108.27322,-91.17433c-14.59705,-2.55104 -39.88374,-2.55104 -52.06735,0c-26.09146,5.43507 -48.96471,16.5272 -70.22845,33.71945l-8.04592,6.5441l-8.84984,-6.87708c-22.0685,-17.52523 -44.94175,-28.50545 -69.07951,-33.16447c-11.37885,-2.21806 -32.06811,-3.1051 -43.21667,-1.77408zm37.4703,15.97131c22.64297,3.88206 42.52747,13.0882 63.10201,29.06042c5.74637,4.43703 12.41306,10.09318 14.94206,12.53414c2.41344,2.55104 4.82688,4.54711 5.28662,4.54711c0.45974,0 3.56322,-2.55104 7.01171,-5.65706c21.14901,-19.63138 44.13699,-32.71958 68.15919,-38.82062c8.85068,-2.32905 12.98836,-2.66204 28.73519,-2.66204c20.91872,0 31.37808,1.775 48.04439,7.76412c34.48239,12.53414 60.68857,40.04156 73.2172,76.97618c7.01087,20.63125 8.50566,37.49051 7.01087,74.98011c-1.72341,40.48462 -5.1719,54.57085 -19.99923,82.85431c-10.9191,20.74224 -18.73557,32.05544 -33.90708,48.69272c-48.84998,53.57282 -120.22737,108.03267 -161.95009,123.56092c-12.29917,4.43703 -16.20656,4.77002 -25.862,1.55301c-34.36683,-11.09121 -93.10087,-52.57386 -145.28378,-102.48661c-47.92966,-45.80869 -65.86047,-73.31611 -75.40035,-115.35374c-2.41344,-10.20417 -2.529,-14.19723 -2.64373,-47.13971c0,-33.27455 0.23029,-37.04562 2.64373,-48.58173c10.57409,-50.24481 42.41275,-85.73834 88.50344,-98.38256c5.51691,-1.55301 13.10309,-3.21701 16.8966,-3.77107c11.03383,-1.55301 31.37808,-1.33102 41.49326,0.33207z"/>
   <path stroke="null" fill="#D60000" d="m137.81541,44.91091c-29.30966,4.77002 -53.21712,18.74526 -67.81501,39.48658c-1.9537,2.66204 -3.79267,5.10209 -4.13769,5.43507c-1.60868,1.44201 -9.08013,16.97026 -11.83859,24.95637c-5.17274,14.75128 -6.78142,27.50742 -6.09222,47.69377c0.57531,16.97026 2.41428,27.61841 5.28746,30.9455c0.69003,0.77696 0.91949,1.664 0.57447,1.99699c-1.03421,0.99803 3.33376,8.65116 4.4827,7.87512c0.69003,-0.44398 0.80476,-0.11099 0.23029,0.66505c-1.2645,1.99699 1.2645,6.5441 7.12643,12.9772c4.25241,4.43703 7.35589,5.99004 12.41306,5.99004c4.82772,0 5.51691,-0.22199 20.91956,-9.65012c13.67756,-8.20718 22.41268,-12.64422 31.95255,-16.52628c3.79351,-1.55301 7.93119,-3.21701 9.1957,-3.77107c1.2645,-0.55497 4.59743,-1.775 7.47061,-2.66204c13.6784,-4.32604 29.7694,-10.09318 33.90792,-12.09016c7.35589,-3.54908 19.19447,-15.97222 25.05641,-26.39839c6.78142,-11.86817 13.90785,-29.39249 17.70052,-43.03566c2.29871,-8.54017 2.75929,-12.20024 2.29871,-18.41227c-0.91949,-10.53716 -6.78142,-21.96135 -14.71177,-28.61644c-6.55196,-5.54515 -19.88451,-12.31124 -22.41351,-11.4242c-0.91949,0.33298 -1.49396,0.22199 -1.14894,-0.33298c0.34418,-0.55406 -3.56322,-2.10706 -8.85068,-3.43808c-11.72386,-3.10602 -28.96464,-3.77107 -41.60799,-1.664z"/>
   <path stroke="null" fill="#D60000" d="m338.84615,44.91091c-30.11442,6.65509 -48.84915,19.29931 -75.97482,51.02177c-5.7472,6.76609 -19.88451,26.95244 -19.88451,28.39446c0,0.55497 -0.45974,0.99895 -0.91949,0.99895c-2.529,0 -23.90747,45.5867 -29.7694,63.22201c-7.58618,23.40336 -13.10309,44.14469 -16.78187,63.55592c-2.06842,11.3132 -2.52817,17.41332 -2.41344,36.82363c0,20.29827 0.34502,24.40232 2.529,32.27743c3.56322,12.75521 10.9191,29.2815 13.10309,29.2815c0.45974,0 0.91949,0.55497 0.91949,1.10903c0,3.32801 19.76978,21.85127 28.73435,26.95336c16.32213,9.09514 21.26457,8.42917 46.20625,-6.65509c9.6546,-5.87905 20.91872,-12.86621 25.05641,-15.75024c17.01132,-11.53519 38.96509,-27.61841 41.953,-30.72443c0.69003,-0.55406 4.82772,-3.88206 9.1957,-7.32014c26.78065,-20.85232 58.61931,-53.79481 73.56137,-76.08914c5.28746,-8.09711 16.66631,-29.06042 16.66631,-30.9455c0,-0.55497 1.03421,-2.99502 2.18399,-5.43507c2.87318,-5.65706 7.7009,-22.07235 9.42515,-32.05453c2.06842,-11.75718 0.57447,-37.37952 -2.75846,-49.91274c-3.56322,-12.75521 -9.77016,-27.39642 -11.37968,-26.39839c-0.80392,0.33298 -0.91949,0.11099 -0.45974,-0.66505c1.95454,-2.99502 -14.36759,-23.0713 -27.01094,-32.94248c-7.47061,-5.87905 -22.52824,-12.86621 -34.82657,-16.08322c-15.63126,-3.99306 -36.09107,-5.21308 -47.35519,-2.66204zm43.4478,52.35279c16.32129,7.43114 24.94168,23.07038 23.56245,42.70268c-0.69003,10.53716 -4.4827,18.85625 -11.26412,25.28936c-5.97666,5.54606 -8.85068,7.09907 -17.93081,9.31713c-11.60914,2.88403 -24.48194,1.664 -35.5166,-3.32801c-11.26412,-5.10209 -18.96502,-16.30429 -21.26374,-30.50152c-2.87318,-18.30128 3.79351,-32.83149 19.07975,-41.59365c11.95415,-6.76609 30.80445,-7.54305 43.33307,-1.88599z"/>
   <path stroke="null" fill="#D60000" d="m168.27568,202.74533c-5.97666,0.44398 -26.09146,6.10104 -32.75731,9.31713c-6.55196,3.21701 -22.87326,13.64317 -27.70097,17.74722c-5.86193,4.99109 -8.96541,11.3132 -8.96541,18.63335c0,7.21007 2.529,16.85927 4.25325,15.86123c0.6892,-0.33298 0.80392,-0.11099 0.34418,0.55497c-1.60868,2.66204 6.78142,14.41922 17.01132,23.84734c7.35589,6.76517 18.62001,14.08623 21.83904,14.08623c1.03421,0 1.83897,0.44306 1.83897,0.88704c0,1.775 7.35589,3.10602 12.06804,2.21806c8.16148,-1.66309 10.57492,-5.65614 12.52862,-20.85232c0.45974,-3.43808 1.49479,-9.20614 3.44849,-18.85533c0.34502,-1.55301 2.87318,-11.75718 5.86193,-22.73831c5.86193,-22.7374 7.01087,-34.38358 3.67794,-38.04457c-2.29871,-2.44005 -5.86193,-3.1051 -13.44811,-2.66204z"/>
  </g>
 </g>
</svg>